<svg xmlns="http://www.w3.org/2000/svg" width="24" height="24" viewBox="0 0 24 24"><symbol id="close" viewBox="0 0 24 24" fill="none" stroke="currentColor" stroke-width="2" stroke-linecap="round" stroke-linejoin="round"><path d="M6 6l12 12M18 6L6 18"/></symbol><symbol id="check" viewBox="0 0 24 24" fill="none" stroke="currentColor" stroke-width="2" stroke-linecap="round" stroke-linejoin="round"><path d="M5 12.5l4.5 4.5L19 7.5"/></symbol><symbol id="plus" viewBox="0 0 24 24" fill="none" stroke="currentColor" stroke-width="2" stroke-linecap="round" stroke-linejoin="round"><path d="M12 5v14M5 12h14"/></symbol><symbol id="minus" viewBox="0 0 24 24" fill="none" stroke="currentColor" stroke-width="2" stroke-linecap="round" stroke-linejoin="round"><path d="M5 12h14"/></symbol><symbol id="menu" viewBox="0 0 24 24" fill="none" stroke="currentColor" stroke-width="2" stroke-linecap="round" stroke-linejoin="round"><path d="M4 7h16M4 12h16M4 17h16"/></symbol><symbol id="chevronUp" viewBox="0 0 24 24" fill="none" stroke="currentColor" stroke-width="2" stroke-linecap="round" stroke-linejoin="round"><path d="M6 15l6-6 6 6"/></symbol><symbol id="chevronDown" viewBox="0 0 24 24" fill="none" stroke="currentColor" stroke-width="2" stroke-linecap="round" stroke-linejoin="round"><path d="M6 9l6 6 6-6"/></symbol><symbol id="chevronLeft" viewBox="0 0 24 24" fill="none" stroke="currentColor" stroke-width="2" stroke-linecap="round" stroke-linejoin="round"><path d="M15 6l-6 6 6 6"/></symbol><symbol id="chevronRight" viewBox="0 0 24 24" fill="none" stroke="currentColor" stroke-width="2" stroke-linecap="round" stroke-linejoin="round"><path d="M9 6l6 6-6 6"/></symbol><symbol id="arrowLeft" viewBox="0 0 24 24" fill="none" stroke="currentColor" stroke-width="2" stroke-linecap="round" stroke-linejoin="round"><path d="M19 12H5M11 6l-6 6 6 6"/></symbol><symbol id="arrowRight" viewBox="0 0 24 24" fill="none" stroke="currentColor" stroke-width="2" stroke-linecap="round" stroke-linejoin="round"><path d="M5 12h14M13 6l6 6-6 6"/></symbol><symbol id="search" viewBox="0 0 24 24" fill="none" stroke="currentColor" stroke-width="2" stroke-linecap="round" stroke-linejoin="round"><circle cx="10.5" cy="10.5" r="6"/><path d="M15 15l5 5"/></symbol><symbol id="settings" viewBox="0 0 24 24" fill="none" stroke="currentColor" stroke-width="2" stroke-linecap="round" stroke-linejoin="round"><path d="M4 7h10M18 7h2M4 17h2M10 17h10"/><circle cx="16" cy="7" r="2"/><circle cx="8" cy="17" r="2"/></symbol><symbol id="warning" viewBox="0 0 24 24" fill="none" stroke="currentColor" stroke-width="2" stroke-linecap="round" stroke-linejoin="round"><path d="M12 4L3 20h18zM12 10v5M12 17.8v.2"/></symbol><symbol id="info" viewBox="0 0 24 24" fill="none" stroke="currentColor" stroke-width="2" stroke-linecap="round" stroke-linejoin="round"><circle cx="12" cy="12" r="9"/><path d="M12 11v6M12 7.8v.2"/></symbol><symbol id="error" viewBox="0 0 24 24" fill="none" stroke="currentColor" stroke-width="2" stroke-linecap="round" stroke-linejoin="round"><circle cx="12" cy="12" r="9"/><path d="M9 9l6 6M15 9l-6 6"/></symbol><symbol id="play" viewBox="0 0 24 24" fill="none" stroke="currentColor" stroke-width="2" stroke-linecap="round" stroke-linejoin="round"><path d="M8 5l11 7-11 7z"/></symbol><symbol id="pause" viewBox="0 0 24 24" fill="none" stroke="currentColor" stroke-width="2" stroke-linecap="round" stroke-linejoin="round"><path d="M8 5h3v14H8zM13 5h3v14h-3z"/></symbol><symbol id="stop" viewBox="0 0 24 24" fill="none" stroke="currentColor" stroke-width="2" stroke-linecap="round" stroke-linejoin="round"><path d="M6 6h12v12H6z"/></symbol><symbol id="lock" viewBox="0 0 24 24" fill="none" stroke="currentColor" stroke-width="2" stroke-linecap="round" stroke-linejoin="round"><rect x="5" y="11" width="14" height="9" rx="2"/><path d="M8 11V8a4 4 0 0 1 8 0v3"/></symbol><symbol id="unlock" viewBox="0 0 24 24" fill="none" stroke="currentColor" stroke-width="2" stroke-linecap="round" stroke-linejoin="round"><rect x="5" y="11" width="14" height="9" rx="2"/><path d="M8 11V8a4 4 0 0 1 7.5-2"/></symbol><symbol id="star" viewBox="0 0 24 24" fill="none" stroke="currentColor" stroke-width="2" stroke-linecap="round" stroke-linejoin="round"><path d="M12 3.5l2.9 5.9 6.5.9-4.7 4.6 1.1 6.5-5.8-3.1-5.8 3.1 1.1-6.5-4.7-4.6 6.5-.9z"/></symbol><symbol id="refresh" viewBox="0 0 24 24" fill="none" stroke="currentColor" stroke-width="2" stroke-linecap="round" stroke-linejoin="round"><path d="M20 12a8 8 0 1 1-2.3-5.7M20 4v5h-5"/></symbol><symbol id="volume" viewBox="0 0 24 24" fill="none" stroke="currentColor" stroke-width="2" stroke-linecap="round" stroke-linejoin="round"><path d="M4 9.5h3.5L12 6v12l-4.5-3.5H4z"/><path d="M15.5 9a4 4 0 0 1 0 6M18 6.5a8 8 0 0 1 0 11"/></symbol><symbol id="volumeOff" viewBox="0 0 24 24" fill="none" stroke="currentColor" stroke-width="2" stroke-linecap="round" stroke-linejoin="round"><path d="M4 9.5h3.5L12 6v12l-4.5-3.5H4z"/><path d="M16 9.5l5 5M21 9.5l-5 5"/></symbol><symbol id="gamepad" viewBox="0 0 24 24" fill="none" stroke="currentColor" stroke-width="2" stroke-linecap="round" stroke-linejoin="round"><path d="M7 8h10a4 4 0 0 1 3.9 4.9l-.7 3.4a2.3 2.3 0 0 1-4 .9L14.5 15h-5l-1.7 2.2a2.3 2.3 0 0 1-4-.9l-.7-3.4A4 4 0 0 1 7 8z"/><path d="M8 10.5v3M6.5 12h3M15.5 11v.2M17.5 13v.2"/></symbol></svg>
