<svg xmlns="http://www.w3.org/2000/svg" width="48" height="36" viewBox="0 0 48 36">
  <defs>
    <linearGradient id="plate" x1="0" y1="0" x2="0" y2="1">
      <stop offset="0" stop-color="#5b6f83"/>
      <stop offset="0.45" stop-color="#34424f"/>
      <stop offset="1" stop-color="#1f2831"/>
    </linearGradient>
    <linearGradient id="glacis" x1="0" y1="0" x2="1" y2="0">
      <stop offset="0" stop-color="#34414e"/>
      <stop offset="1" stop-color="#71879b"/>
    </linearGradient>
    <radialGradient id="shell" cx="0.4" cy="0.3" r="0.8">
      <stop offset="0" stop-color="#b0647a"/>
      <stop offset="0.55" stop-color="#6b3547"/>
      <stop offset="1" stop-color="#361823"/>
    </radialGradient>
  </defs>
  <path d="M7 5H35L44 11V25L35 31H7L3 27V9Z" fill="url(#plate)" stroke="#0d1217" stroke-width="1.2" stroke-linejoin="round"/>
  <path d="M7.5 7.2H34.4" stroke="#8ea4b8" stroke-opacity=".45" stroke-width=".7"/>
  <path d="M7.5 28.8H34.4" stroke="#0d1217" stroke-opacity=".55" stroke-width=".7"/>
  <path d="M35 6.6L42.6 11.6V24.4L35 29.4Z" fill="url(#glacis)" stroke="#0d1217" stroke-width=".8" stroke-linejoin="round"/>
  <path d="M37 10.2L41 12.8V23.2L37 25.8" fill="none" stroke="#a9bdd0" stroke-opacity=".5" stroke-width=".6"/>
  <path d="M38.6 16.6l1.6.9-1.6.9M38.6 18.2l1.6.9-1.6.9" fill="none" stroke="#f2b544" stroke-width=".5" stroke-linecap="round"/>
  <rect x="41.3" y="16" width="1.3" height="4" rx=".65" fill="#52f5cf"/>
  <rect x="18" y="5.6" width="15.4" height="3.9" rx="1" fill="#3d4c5a" stroke="#0d1217" stroke-width=".6"/>
  <rect x="18" y="26.5" width="15.4" height="3.9" rx="1" fill="#2e3a46" stroke="#0d1217" stroke-width=".6"/>
  <g fill="#8ea4b8">
    <circle cx="19.6" cy="7.55" r=".6"/><circle cx="31.8" cy="7.55" r=".6"/>
    <circle cx="19.6" cy="28.45" r=".6"/><circle cx="31.8" cy="28.45" r=".6"/>
    <circle cx="36.6" cy="8.6" r=".5"/><circle cx="36.6" cy="27.4" r=".5"/>
  </g>
  <ellipse cx="13.5" cy="18" rx="10" ry="10.6" fill="#241019"/>
  <path d="M5 18C5 12 7.6 8.9 9.6 8.3C8.8 12.4 8.8 23.6 9.6 27.7C7.6 27.1 5 24 5 18Z" fill="url(#shell)" stroke="#1a0b12" stroke-width=".6"/>
  <path d="M10.6 8C12.6 7.5 14.4 7.4 15.8 7.6C15 12.2 15 23.8 15.8 28.4C14.4 28.6 12.6 28.5 10.6 28C9.8 23.8 9.8 12.2 10.6 8Z" fill="url(#shell)" stroke="#1a0b12" stroke-width=".6"/>
  <path d="M16.8 7.7C18.2 7.8 19.4 8.1 20.4 8.6C19.8 13 19.8 23 20.4 27.4C19.4 27.9 18.2 28.2 16.8 28.3C16.1 23.6 16.1 12.4 16.8 7.7Z" fill="url(#shell)" stroke="#1a0b12" stroke-width=".6"/>
  <g fill="none" stroke="#52f5cf" stroke-linecap="round" stroke-width=".5" stroke-opacity=".7">
    <path d="M6.4 13.2C7.6 14.2 8.6 14.4 9.8 14.1"/>
    <path d="M6.4 22.8C7.6 21.8 8.6 21.6 9.8 21.9"/>
    <path d="M11.4 11.6C12.6 12.8 13.8 13 15.2 12.6"/>
    <path d="M11.4 24.4C12.6 23.2 13.8 23 15.2 23.4"/>
  </g>
  <g fill="#0b0f13">
    <rect x="3.6" y="12.2" width="1.2" height="2.6" rx=".4"/>
    <rect x="3.6" y="16.7" width="1.2" height="2.6" rx=".4"/>
    <rect x="3.6" y="21.2" width="1.2" height="2.6" rx=".4"/>
  </g>
  <circle cx="24" cy="18" r="10.3" fill="#0a0e12" stroke="#4d5e6e" stroke-width=".9"/>
  <circle cx="24" cy="18" r="8.9" fill="none" stroke="#1d3a36" stroke-width="1.4"/>
</svg>
